M48
;GenerationSoftware,Autodesk,EAGLE,9.5.2*%
;CreationDate,2019-12-01T23:43:58Z*%
FMAT,2
ICI,OFF
METRIC,TZ,000.000
T4C0.350
T3C0.813
T2C1.016
T1C2.997
%
G90
M71
T1
X19050Y92440
X19050Y86440
X23750Y89440
T2
X19177Y76200
X41910Y40640
X16383Y76200
X39497Y49530
X39370Y40640
X44450Y40640
X46990Y40640
X49530Y40640
X52070Y40640
X36703Y49530
X45720Y52070
X45720Y54610
X48260Y52070
X48260Y54610
X50800Y52070
X50800Y54610
T3
X48260Y64770
X50800Y64770
X50800Y72390
X48260Y72390
X45720Y72390
X43180Y72390
X40640Y72390
X38100Y72390
X30480Y64770
X33020Y72390
X30480Y72390
X27940Y72390
X25400Y72390
X22860Y72390
X20320Y72390
X17780Y72390
X16510Y44450
X19050Y44450
X16510Y36830
X19050Y36830
X16510Y29210
X19050Y29210
X17780Y64770
X20320Y64770
X22860Y64770
X25400Y64770
X27940Y64770
X35560Y72390
X33020Y64770
X35560Y64770
X38100Y64770
X40640Y64770
X43180Y64770
X45720Y64770
T4
X15697Y58217
X14783Y55321
M30