G04 EAGLE Gerber RS-274X export*
G75*
%MOMM*%
%FSLAX34Y34*%
%LPD*%
%INTop Copper*%
%IPPOS*%
%AMOC8*
5,1,8,0,0,1.08239X$1,22.5*%
G01*
%ADD10C,4.318000*%
%ADD11C,2.032000*%
%ADD12C,1.625600*%
%ADD13R,1.100000X1.000000*%
%ADD14P,1.429621X8X22.500000*%
%ADD15C,1.879600*%
%ADD16C,0.152400*%
%ADD17C,0.756400*%


D10*
X190500Y924400D03*
X190500Y864400D03*
X237500Y894400D03*
D11*
X163830Y762000D03*
X191770Y762000D03*
D12*
X177800Y647700D03*
X203200Y647700D03*
X228600Y647700D03*
X254000Y647700D03*
X279400Y647700D03*
X304800Y647700D03*
X330200Y647700D03*
X355600Y647700D03*
X381000Y647700D03*
X406400Y647700D03*
X431800Y647700D03*
X457200Y647700D03*
X482600Y647700D03*
X508000Y647700D03*
X508000Y723900D03*
X482600Y723900D03*
X457200Y723900D03*
X431800Y723900D03*
X406400Y723900D03*
X381000Y723900D03*
X355600Y723900D03*
X330200Y723900D03*
X304800Y723900D03*
X279400Y723900D03*
X254000Y723900D03*
X228600Y723900D03*
X203200Y723900D03*
X177800Y723900D03*
D13*
X156600Y609600D03*
X173600Y609600D03*
X156600Y571500D03*
X173600Y571500D03*
X156600Y533400D03*
X173600Y533400D03*
X156600Y495300D03*
X173600Y495300D03*
D14*
X165100Y444500D03*
X190500Y444500D03*
X165100Y368300D03*
X190500Y368300D03*
X165100Y292100D03*
X190500Y292100D03*
D15*
X393700Y406400D03*
X419100Y406400D03*
X444500Y406400D03*
X469900Y406400D03*
X495300Y406400D03*
X520700Y406400D03*
D11*
X367030Y495300D03*
X394970Y495300D03*
D15*
X457200Y520700D03*
X457200Y546100D03*
X482600Y520700D03*
X482600Y546100D03*
X508000Y520700D03*
X508000Y546100D03*
D16*
X164592Y762000D02*
X164592Y897636D01*
X190500Y923544D01*
X164592Y762000D02*
X163830Y762000D01*
X190500Y923544D02*
X190500Y924400D01*
X298704Y637032D02*
X156972Y495300D01*
X298704Y637032D02*
X318516Y637032D01*
X329184Y647700D01*
X156972Y495300D02*
X156600Y495300D01*
X329184Y647700D02*
X330200Y647700D01*
X431292Y547116D02*
X457200Y547116D01*
X431292Y547116D02*
X330708Y647700D01*
X457200Y547116D02*
X457200Y546100D01*
X330708Y647700D02*
X330200Y647700D01*
X355092Y647700D02*
X355092Y699516D01*
X330708Y723900D01*
X355092Y647700D02*
X355600Y647700D01*
X330708Y723900D02*
X330200Y723900D01*
X498348Y547116D02*
X507492Y547116D01*
X498348Y547116D02*
X408432Y637032D01*
X367284Y637032D01*
X356616Y647700D01*
X507492Y547116D02*
X508000Y546100D01*
X356616Y647700D02*
X355600Y647700D01*
X173736Y571500D02*
X173736Y533400D01*
X173600Y533400D01*
X173736Y571500D02*
X173736Y609600D01*
X173600Y609600D01*
X173736Y571500D02*
X173600Y571500D01*
X172212Y609600D02*
X172212Y638556D01*
X166116Y644652D01*
X166116Y737616D01*
X190500Y762000D01*
X173600Y609600D02*
X172212Y609600D01*
X190500Y865632D02*
X208788Y865632D01*
X236220Y893064D01*
X190500Y865632D02*
X190500Y864400D01*
X236220Y893064D02*
X237500Y894400D01*
X190500Y864400D02*
X190500Y762000D01*
X191770Y762000D01*
X320040Y723900D02*
X330200Y723900D01*
X320040Y723900D02*
X281940Y762000D01*
X191770Y762000D01*
X156972Y609600D02*
X156972Y582168D01*
X156972Y609600D02*
X156600Y609600D01*
D17*
X156972Y582168D03*
D16*
X155448Y571500D02*
X155448Y560832D01*
X147828Y553212D01*
X155448Y571500D02*
X156600Y571500D01*
D17*
X147828Y553212D03*
D16*
X155448Y533400D02*
X155448Y513588D01*
X144780Y502920D01*
X144780Y338328D01*
X190500Y292608D01*
X156600Y533400D02*
X155448Y533400D01*
X190500Y292608D02*
X190500Y292100D01*
X178308Y445008D02*
X166116Y445008D01*
X178308Y445008D02*
X214884Y481584D01*
X400812Y481584D01*
X452628Y533400D01*
X512064Y533400D01*
X519684Y541020D01*
X519684Y637032D01*
X509016Y647700D01*
X166116Y445008D02*
X165100Y444500D01*
X508000Y647700D02*
X509016Y647700D01*
X178308Y368808D02*
X166116Y368808D01*
X178308Y368808D02*
X288036Y478536D01*
X483108Y478536D01*
X522732Y518160D01*
X522732Y710184D01*
X509016Y723900D01*
X166116Y368808D02*
X165100Y368300D01*
X508000Y723900D02*
X509016Y723900D01*
X367030Y495300D02*
X173600Y495300D01*
X178308Y618744D02*
X178308Y647700D01*
X178308Y618744D02*
X182880Y614172D01*
X182880Y528828D01*
X156972Y502920D01*
X149352Y502920D01*
X147828Y501396D01*
X147828Y489204D01*
X149352Y487680D01*
X164592Y487680D01*
X172212Y495300D01*
X177800Y647700D02*
X178308Y647700D01*
X173600Y495300D02*
X172212Y495300D01*
X127000Y927100D02*
X127000Y939800D01*
X127000Y927100D02*
X127000Y254000D01*
X546100Y254000D01*
X546100Y508000D01*
X533400Y520700D01*
X533400Y749300D01*
X342900Y749300D01*
X304800Y787400D01*
X304800Y927100D01*
X279400Y952500D01*
X127000Y952500D01*
X127000Y939800D01*
M02*
