G04 EAGLE Gerber RS-274X export*
G75*
%MOMM*%
%FSLAX34Y34*%
%LPD*%
%INSilkscreen Top*%
%IPPOS*%
%AMOC8*
5,1,8,0,0,1.08239X$1,22.5*%
G01*
%ADD10C,0.203200*%
%ADD11C,0.127000*%
%ADD12C,0.254000*%
%ADD13C,0.152400*%


D10*
X235500Y924400D02*
X214500Y924400D01*
X235500Y870400D02*
X235500Y817400D01*
X235500Y917400D02*
X235500Y924400D01*
X145500Y924400D02*
X145500Y817400D01*
X145500Y924400D02*
X166500Y924400D01*
X145500Y817400D02*
X235500Y817400D01*
D11*
X179028Y811149D02*
X179028Y807395D01*
X179027Y807395D02*
X179025Y807330D01*
X179019Y807266D01*
X179009Y807202D01*
X178996Y807138D01*
X178978Y807076D01*
X178957Y807015D01*
X178933Y806955D01*
X178904Y806897D01*
X178872Y806840D01*
X178837Y806786D01*
X178799Y806734D01*
X178757Y806684D01*
X178713Y806637D01*
X178666Y806593D01*
X178616Y806551D01*
X178564Y806513D01*
X178510Y806478D01*
X178453Y806446D01*
X178395Y806417D01*
X178335Y806393D01*
X178274Y806372D01*
X178212Y806354D01*
X178148Y806341D01*
X178084Y806331D01*
X178020Y806325D01*
X177955Y806323D01*
X177419Y806323D01*
X181976Y810077D02*
X183316Y811149D01*
X183316Y806323D01*
X181976Y806323D02*
X184657Y806323D01*
D12*
X177800Y768350D02*
X177800Y755650D01*
X151130Y774700D02*
X204470Y774700D01*
X204470Y749300D01*
X151130Y749300D01*
X151130Y774700D01*
D10*
X165100Y711200D02*
X520700Y711200D01*
X520700Y660400D02*
X165100Y660400D01*
X520700Y660400D02*
X520700Y711200D01*
X165100Y711200D02*
X165100Y695960D01*
X165100Y675640D02*
X165100Y660400D01*
X165100Y675640D02*
X165347Y675643D01*
X165595Y675652D01*
X165842Y675667D01*
X166088Y675688D01*
X166334Y675715D01*
X166579Y675748D01*
X166824Y675787D01*
X167067Y675832D01*
X167309Y675883D01*
X167550Y675940D01*
X167789Y676002D01*
X168027Y676071D01*
X168263Y676145D01*
X168497Y676225D01*
X168729Y676310D01*
X168959Y676402D01*
X169187Y676498D01*
X169412Y676601D01*
X169635Y676708D01*
X169855Y676822D01*
X170072Y676940D01*
X170287Y677064D01*
X170498Y677193D01*
X170706Y677327D01*
X170911Y677466D01*
X171112Y677610D01*
X171310Y677758D01*
X171504Y677912D01*
X171694Y678070D01*
X171880Y678233D01*
X172062Y678400D01*
X172240Y678572D01*
X172414Y678748D01*
X172584Y678928D01*
X172749Y679113D01*
X172909Y679301D01*
X173065Y679493D01*
X173217Y679689D01*
X173363Y679888D01*
X173505Y680091D01*
X173641Y680298D01*
X173773Y680507D01*
X173899Y680720D01*
X174020Y680936D01*
X174136Y681154D01*
X174246Y681376D01*
X174351Y681600D01*
X174451Y681826D01*
X174545Y682055D01*
X174633Y682286D01*
X174716Y682520D01*
X174793Y682755D01*
X174864Y682992D01*
X174930Y683230D01*
X174989Y683470D01*
X175043Y683712D01*
X175091Y683955D01*
X175133Y684198D01*
X175169Y684443D01*
X175199Y684689D01*
X175223Y684935D01*
X175241Y685182D01*
X175253Y685429D01*
X175259Y685676D01*
X175259Y685924D01*
X175253Y686171D01*
X175241Y686418D01*
X175223Y686665D01*
X175199Y686911D01*
X175169Y687157D01*
X175133Y687402D01*
X175091Y687645D01*
X175043Y687888D01*
X174989Y688130D01*
X174930Y688370D01*
X174864Y688608D01*
X174793Y688845D01*
X174716Y689080D01*
X174633Y689314D01*
X174545Y689545D01*
X174451Y689774D01*
X174351Y690000D01*
X174246Y690224D01*
X174136Y690446D01*
X174020Y690664D01*
X173899Y690880D01*
X173773Y691093D01*
X173641Y691302D01*
X173505Y691509D01*
X173363Y691712D01*
X173217Y691911D01*
X173065Y692107D01*
X172909Y692299D01*
X172749Y692487D01*
X172584Y692672D01*
X172414Y692852D01*
X172240Y693028D01*
X172062Y693200D01*
X171880Y693367D01*
X171694Y693530D01*
X171504Y693688D01*
X171310Y693842D01*
X171112Y693990D01*
X170911Y694134D01*
X170706Y694273D01*
X170498Y694407D01*
X170287Y694536D01*
X170072Y694660D01*
X169855Y694778D01*
X169635Y694892D01*
X169412Y694999D01*
X169187Y695102D01*
X168959Y695198D01*
X168729Y695290D01*
X168497Y695375D01*
X168263Y695455D01*
X168027Y695529D01*
X167789Y695598D01*
X167550Y695660D01*
X167309Y695717D01*
X167067Y695768D01*
X166824Y695813D01*
X166579Y695852D01*
X166334Y695885D01*
X166088Y695912D01*
X165842Y695933D01*
X165595Y695948D01*
X165347Y695957D01*
X165100Y695960D01*
D12*
X153670Y654050D02*
X153672Y654192D01*
X153678Y654335D01*
X153688Y654477D01*
X153702Y654619D01*
X153720Y654760D01*
X153742Y654901D01*
X153768Y655041D01*
X153797Y655180D01*
X153831Y655319D01*
X153869Y655456D01*
X153910Y655593D01*
X153955Y655728D01*
X154004Y655862D01*
X154057Y655994D01*
X154113Y656125D01*
X154173Y656254D01*
X154237Y656382D01*
X154304Y656507D01*
X154375Y656631D01*
X154449Y656753D01*
X154526Y656872D01*
X154607Y656990D01*
X154691Y657105D01*
X154778Y657217D01*
X154869Y657327D01*
X154962Y657435D01*
X155059Y657540D01*
X155158Y657642D01*
X155260Y657741D01*
X155365Y657838D01*
X155473Y657931D01*
X155583Y658022D01*
X155695Y658109D01*
X155810Y658193D01*
X155928Y658274D01*
X156047Y658351D01*
X156169Y658425D01*
X156293Y658496D01*
X156418Y658563D01*
X156546Y658627D01*
X156675Y658687D01*
X156806Y658743D01*
X156938Y658796D01*
X157072Y658845D01*
X157207Y658890D01*
X157344Y658931D01*
X157481Y658969D01*
X157620Y659003D01*
X157759Y659032D01*
X157899Y659058D01*
X158040Y659080D01*
X158181Y659098D01*
X158323Y659112D01*
X158465Y659122D01*
X158608Y659128D01*
X158750Y659130D01*
X158892Y659128D01*
X159035Y659122D01*
X159177Y659112D01*
X159319Y659098D01*
X159460Y659080D01*
X159601Y659058D01*
X159741Y659032D01*
X159880Y659003D01*
X160019Y658969D01*
X160156Y658931D01*
X160293Y658890D01*
X160428Y658845D01*
X160562Y658796D01*
X160694Y658743D01*
X160825Y658687D01*
X160954Y658627D01*
X161082Y658563D01*
X161207Y658496D01*
X161331Y658425D01*
X161453Y658351D01*
X161572Y658274D01*
X161690Y658193D01*
X161805Y658109D01*
X161917Y658022D01*
X162027Y657931D01*
X162135Y657838D01*
X162240Y657741D01*
X162342Y657642D01*
X162441Y657540D01*
X162538Y657435D01*
X162631Y657327D01*
X162722Y657217D01*
X162809Y657105D01*
X162893Y656990D01*
X162974Y656872D01*
X163051Y656753D01*
X163125Y656631D01*
X163196Y656507D01*
X163263Y656382D01*
X163327Y656254D01*
X163387Y656125D01*
X163443Y655994D01*
X163496Y655862D01*
X163545Y655728D01*
X163590Y655593D01*
X163631Y655456D01*
X163669Y655319D01*
X163703Y655180D01*
X163732Y655041D01*
X163758Y654901D01*
X163780Y654760D01*
X163798Y654619D01*
X163812Y654477D01*
X163822Y654335D01*
X163828Y654192D01*
X163830Y654050D01*
X163828Y653908D01*
X163822Y653765D01*
X163812Y653623D01*
X163798Y653481D01*
X163780Y653340D01*
X163758Y653199D01*
X163732Y653059D01*
X163703Y652920D01*
X163669Y652781D01*
X163631Y652644D01*
X163590Y652507D01*
X163545Y652372D01*
X163496Y652238D01*
X163443Y652106D01*
X163387Y651975D01*
X163327Y651846D01*
X163263Y651718D01*
X163196Y651593D01*
X163125Y651469D01*
X163051Y651347D01*
X162974Y651228D01*
X162893Y651110D01*
X162809Y650995D01*
X162722Y650883D01*
X162631Y650773D01*
X162538Y650665D01*
X162441Y650560D01*
X162342Y650458D01*
X162240Y650359D01*
X162135Y650262D01*
X162027Y650169D01*
X161917Y650078D01*
X161805Y649991D01*
X161690Y649907D01*
X161572Y649826D01*
X161453Y649749D01*
X161331Y649675D01*
X161207Y649604D01*
X161082Y649537D01*
X160954Y649473D01*
X160825Y649413D01*
X160694Y649357D01*
X160562Y649304D01*
X160428Y649255D01*
X160293Y649210D01*
X160156Y649169D01*
X160019Y649131D01*
X159880Y649097D01*
X159741Y649068D01*
X159601Y649042D01*
X159460Y649020D01*
X159319Y649002D01*
X159177Y648988D01*
X159035Y648978D01*
X158892Y648972D01*
X158750Y648970D01*
X158608Y648972D01*
X158465Y648978D01*
X158323Y648988D01*
X158181Y649002D01*
X158040Y649020D01*
X157899Y649042D01*
X157759Y649068D01*
X157620Y649097D01*
X157481Y649131D01*
X157344Y649169D01*
X157207Y649210D01*
X157072Y649255D01*
X156938Y649304D01*
X156806Y649357D01*
X156675Y649413D01*
X156546Y649473D01*
X156418Y649537D01*
X156293Y649604D01*
X156169Y649675D01*
X156047Y649749D01*
X155928Y649826D01*
X155810Y649907D01*
X155695Y649991D01*
X155583Y650078D01*
X155473Y650169D01*
X155365Y650262D01*
X155260Y650359D01*
X155158Y650458D01*
X155059Y650560D01*
X154962Y650665D01*
X154869Y650773D01*
X154778Y650883D01*
X154691Y650995D01*
X154607Y651110D01*
X154526Y651228D01*
X154449Y651347D01*
X154375Y651469D01*
X154304Y651593D01*
X154237Y651718D01*
X154173Y651846D01*
X154113Y651975D01*
X154057Y652106D01*
X154004Y652238D01*
X153955Y652372D01*
X153910Y652507D01*
X153869Y652644D01*
X153831Y652781D01*
X153797Y652920D01*
X153768Y653059D01*
X153742Y653199D01*
X153720Y653340D01*
X153702Y653481D01*
X153688Y653623D01*
X153678Y653765D01*
X153672Y653908D01*
X153670Y654050D01*
D11*
X153289Y681625D02*
X156774Y681625D01*
X156774Y681624D02*
X156845Y681626D01*
X156917Y681632D01*
X156987Y681641D01*
X157057Y681654D01*
X157127Y681671D01*
X157195Y681692D01*
X157262Y681716D01*
X157328Y681744D01*
X157392Y681775D01*
X157455Y681810D01*
X157515Y681848D01*
X157574Y681889D01*
X157630Y681933D01*
X157684Y681980D01*
X157735Y682029D01*
X157783Y682082D01*
X157829Y682137D01*
X157871Y682194D01*
X157911Y682254D01*
X157947Y682315D01*
X157980Y682379D01*
X158009Y682444D01*
X158035Y682510D01*
X158058Y682578D01*
X158077Y682647D01*
X158092Y682717D01*
X158103Y682787D01*
X158111Y682858D01*
X158115Y682929D01*
X158115Y683001D01*
X158111Y683072D01*
X158103Y683143D01*
X158092Y683213D01*
X158077Y683283D01*
X158058Y683352D01*
X158035Y683420D01*
X158009Y683486D01*
X157980Y683551D01*
X157947Y683615D01*
X157911Y683676D01*
X157871Y683736D01*
X157829Y683793D01*
X157783Y683848D01*
X157735Y683901D01*
X157684Y683950D01*
X157630Y683997D01*
X157574Y684041D01*
X157515Y684082D01*
X157455Y684120D01*
X157392Y684155D01*
X157328Y684186D01*
X157262Y684214D01*
X157195Y684238D01*
X157127Y684259D01*
X157057Y684276D01*
X156987Y684289D01*
X156917Y684298D01*
X156845Y684304D01*
X156774Y684306D01*
X153289Y684306D01*
X154361Y687294D02*
X153289Y688635D01*
X158115Y688635D01*
X158115Y689975D02*
X158115Y687294D01*
X161048Y622681D02*
X161048Y617855D01*
X161048Y622681D02*
X162389Y622681D01*
X162460Y622679D01*
X162532Y622673D01*
X162602Y622664D01*
X162672Y622651D01*
X162742Y622634D01*
X162810Y622613D01*
X162877Y622589D01*
X162943Y622561D01*
X163007Y622530D01*
X163070Y622495D01*
X163130Y622457D01*
X163189Y622416D01*
X163245Y622372D01*
X163299Y622325D01*
X163350Y622276D01*
X163398Y622223D01*
X163444Y622168D01*
X163486Y622111D01*
X163526Y622051D01*
X163562Y621990D01*
X163595Y621926D01*
X163624Y621861D01*
X163650Y621795D01*
X163673Y621727D01*
X163692Y621658D01*
X163707Y621588D01*
X163718Y621518D01*
X163726Y621447D01*
X163730Y621376D01*
X163730Y621304D01*
X163726Y621233D01*
X163718Y621162D01*
X163707Y621092D01*
X163692Y621022D01*
X163673Y620953D01*
X163650Y620885D01*
X163624Y620819D01*
X163595Y620754D01*
X163562Y620690D01*
X163526Y620629D01*
X163486Y620569D01*
X163444Y620512D01*
X163398Y620457D01*
X163350Y620404D01*
X163299Y620355D01*
X163245Y620308D01*
X163189Y620264D01*
X163130Y620223D01*
X163070Y620185D01*
X163007Y620150D01*
X162943Y620119D01*
X162877Y620091D01*
X162810Y620067D01*
X162742Y620046D01*
X162672Y620029D01*
X162602Y620016D01*
X162532Y620007D01*
X162460Y620001D01*
X162389Y619999D01*
X162389Y620000D02*
X161048Y620000D01*
X162657Y620000D02*
X163729Y617855D01*
X166471Y621609D02*
X167811Y622681D01*
X167811Y617855D01*
X166471Y617855D02*
X169152Y617855D01*
X161048Y584581D02*
X161048Y579755D01*
X161048Y584581D02*
X162389Y584581D01*
X162460Y584579D01*
X162532Y584573D01*
X162602Y584564D01*
X162672Y584551D01*
X162742Y584534D01*
X162810Y584513D01*
X162877Y584489D01*
X162943Y584461D01*
X163007Y584430D01*
X163070Y584395D01*
X163130Y584357D01*
X163189Y584316D01*
X163245Y584272D01*
X163299Y584225D01*
X163350Y584176D01*
X163398Y584123D01*
X163444Y584068D01*
X163486Y584011D01*
X163526Y583951D01*
X163562Y583890D01*
X163595Y583826D01*
X163624Y583761D01*
X163650Y583695D01*
X163673Y583627D01*
X163692Y583558D01*
X163707Y583488D01*
X163718Y583418D01*
X163726Y583347D01*
X163730Y583276D01*
X163730Y583204D01*
X163726Y583133D01*
X163718Y583062D01*
X163707Y582992D01*
X163692Y582922D01*
X163673Y582853D01*
X163650Y582785D01*
X163624Y582719D01*
X163595Y582654D01*
X163562Y582590D01*
X163526Y582529D01*
X163486Y582469D01*
X163444Y582412D01*
X163398Y582357D01*
X163350Y582304D01*
X163299Y582255D01*
X163245Y582208D01*
X163189Y582164D01*
X163130Y582123D01*
X163070Y582085D01*
X163007Y582050D01*
X162943Y582019D01*
X162877Y581991D01*
X162810Y581967D01*
X162742Y581946D01*
X162672Y581929D01*
X162602Y581916D01*
X162532Y581907D01*
X162460Y581901D01*
X162389Y581899D01*
X162389Y581900D02*
X161048Y581900D01*
X162657Y581900D02*
X163729Y579755D01*
X167945Y584581D02*
X168013Y584579D01*
X168080Y584573D01*
X168147Y584564D01*
X168214Y584551D01*
X168279Y584534D01*
X168344Y584513D01*
X168407Y584489D01*
X168469Y584461D01*
X168529Y584430D01*
X168587Y584396D01*
X168643Y584358D01*
X168698Y584318D01*
X168749Y584274D01*
X168798Y584227D01*
X168845Y584178D01*
X168889Y584127D01*
X168929Y584072D01*
X168967Y584016D01*
X169001Y583958D01*
X169032Y583898D01*
X169060Y583836D01*
X169084Y583773D01*
X169105Y583708D01*
X169122Y583643D01*
X169135Y583576D01*
X169144Y583509D01*
X169150Y583442D01*
X169152Y583374D01*
X167945Y584581D02*
X167867Y584579D01*
X167789Y584573D01*
X167712Y584563D01*
X167635Y584550D01*
X167559Y584532D01*
X167484Y584511D01*
X167410Y584486D01*
X167338Y584457D01*
X167267Y584425D01*
X167198Y584389D01*
X167130Y584350D01*
X167065Y584307D01*
X167002Y584261D01*
X166941Y584212D01*
X166883Y584160D01*
X166828Y584105D01*
X166775Y584048D01*
X166726Y583988D01*
X166679Y583925D01*
X166636Y583861D01*
X166596Y583794D01*
X166559Y583725D01*
X166526Y583654D01*
X166496Y583582D01*
X166470Y583509D01*
X168750Y582436D02*
X168799Y582485D01*
X168846Y582537D01*
X168889Y582592D01*
X168930Y582649D01*
X168968Y582708D01*
X169002Y582769D01*
X169033Y582832D01*
X169061Y582896D01*
X169085Y582962D01*
X169105Y583028D01*
X169122Y583096D01*
X169135Y583165D01*
X169144Y583234D01*
X169150Y583304D01*
X169152Y583374D01*
X168750Y582436D02*
X166471Y579755D01*
X169152Y579755D01*
X161048Y546481D02*
X161048Y541655D01*
X161048Y546481D02*
X162389Y546481D01*
X162460Y546479D01*
X162532Y546473D01*
X162602Y546464D01*
X162672Y546451D01*
X162742Y546434D01*
X162810Y546413D01*
X162877Y546389D01*
X162943Y546361D01*
X163007Y546330D01*
X163070Y546295D01*
X163130Y546257D01*
X163189Y546216D01*
X163245Y546172D01*
X163299Y546125D01*
X163350Y546076D01*
X163398Y546023D01*
X163444Y545968D01*
X163486Y545911D01*
X163526Y545851D01*
X163562Y545790D01*
X163595Y545726D01*
X163624Y545661D01*
X163650Y545595D01*
X163673Y545527D01*
X163692Y545458D01*
X163707Y545388D01*
X163718Y545318D01*
X163726Y545247D01*
X163730Y545176D01*
X163730Y545104D01*
X163726Y545033D01*
X163718Y544962D01*
X163707Y544892D01*
X163692Y544822D01*
X163673Y544753D01*
X163650Y544685D01*
X163624Y544619D01*
X163595Y544554D01*
X163562Y544490D01*
X163526Y544429D01*
X163486Y544369D01*
X163444Y544312D01*
X163398Y544257D01*
X163350Y544204D01*
X163299Y544155D01*
X163245Y544108D01*
X163189Y544064D01*
X163130Y544023D01*
X163070Y543985D01*
X163007Y543950D01*
X162943Y543919D01*
X162877Y543891D01*
X162810Y543867D01*
X162742Y543846D01*
X162672Y543829D01*
X162602Y543816D01*
X162532Y543807D01*
X162460Y543801D01*
X162389Y543799D01*
X162389Y543800D02*
X161048Y543800D01*
X162657Y543800D02*
X163729Y541655D01*
X166471Y541655D02*
X167811Y541655D01*
X167882Y541657D01*
X167954Y541663D01*
X168024Y541672D01*
X168094Y541685D01*
X168164Y541702D01*
X168232Y541723D01*
X168299Y541747D01*
X168365Y541775D01*
X168429Y541806D01*
X168492Y541841D01*
X168552Y541879D01*
X168611Y541920D01*
X168667Y541964D01*
X168721Y542011D01*
X168772Y542060D01*
X168820Y542113D01*
X168866Y542168D01*
X168908Y542225D01*
X168948Y542285D01*
X168984Y542346D01*
X169017Y542410D01*
X169046Y542475D01*
X169072Y542541D01*
X169095Y542609D01*
X169114Y542678D01*
X169129Y542748D01*
X169140Y542818D01*
X169148Y542889D01*
X169152Y542960D01*
X169152Y543032D01*
X169148Y543103D01*
X169140Y543174D01*
X169129Y543244D01*
X169114Y543314D01*
X169095Y543383D01*
X169072Y543451D01*
X169046Y543517D01*
X169017Y543582D01*
X168984Y543646D01*
X168948Y543707D01*
X168908Y543767D01*
X168866Y543824D01*
X168820Y543879D01*
X168772Y543932D01*
X168721Y543981D01*
X168667Y544028D01*
X168611Y544072D01*
X168552Y544113D01*
X168492Y544151D01*
X168429Y544186D01*
X168365Y544217D01*
X168299Y544245D01*
X168232Y544269D01*
X168164Y544290D01*
X168094Y544307D01*
X168024Y544320D01*
X167954Y544329D01*
X167882Y544335D01*
X167811Y544337D01*
X168079Y546481D02*
X166471Y546481D01*
X168079Y546481D02*
X168144Y546479D01*
X168208Y546473D01*
X168272Y546463D01*
X168336Y546450D01*
X168398Y546432D01*
X168459Y546411D01*
X168519Y546387D01*
X168577Y546358D01*
X168634Y546326D01*
X168688Y546291D01*
X168740Y546253D01*
X168790Y546211D01*
X168837Y546167D01*
X168881Y546120D01*
X168923Y546070D01*
X168961Y546018D01*
X168996Y545964D01*
X169028Y545907D01*
X169057Y545849D01*
X169081Y545789D01*
X169102Y545728D01*
X169120Y545666D01*
X169133Y545602D01*
X169143Y545538D01*
X169149Y545474D01*
X169151Y545409D01*
X169149Y545344D01*
X169143Y545280D01*
X169133Y545216D01*
X169120Y545152D01*
X169102Y545090D01*
X169081Y545029D01*
X169057Y544969D01*
X169028Y544911D01*
X168996Y544854D01*
X168961Y544800D01*
X168923Y544748D01*
X168881Y544698D01*
X168837Y544651D01*
X168790Y544607D01*
X168740Y544565D01*
X168688Y544527D01*
X168634Y544492D01*
X168577Y544460D01*
X168519Y544431D01*
X168459Y544407D01*
X168398Y544386D01*
X168336Y544368D01*
X168272Y544355D01*
X168208Y544345D01*
X168144Y544339D01*
X168079Y544337D01*
X168079Y544336D02*
X167007Y544336D01*
X161048Y508381D02*
X161048Y503555D01*
X161048Y508381D02*
X162389Y508381D01*
X162460Y508379D01*
X162532Y508373D01*
X162602Y508364D01*
X162672Y508351D01*
X162742Y508334D01*
X162810Y508313D01*
X162877Y508289D01*
X162943Y508261D01*
X163007Y508230D01*
X163070Y508195D01*
X163130Y508157D01*
X163189Y508116D01*
X163245Y508072D01*
X163299Y508025D01*
X163350Y507976D01*
X163398Y507923D01*
X163444Y507868D01*
X163486Y507811D01*
X163526Y507751D01*
X163562Y507690D01*
X163595Y507626D01*
X163624Y507561D01*
X163650Y507495D01*
X163673Y507427D01*
X163692Y507358D01*
X163707Y507288D01*
X163718Y507218D01*
X163726Y507147D01*
X163730Y507076D01*
X163730Y507004D01*
X163726Y506933D01*
X163718Y506862D01*
X163707Y506792D01*
X163692Y506722D01*
X163673Y506653D01*
X163650Y506585D01*
X163624Y506519D01*
X163595Y506454D01*
X163562Y506390D01*
X163526Y506329D01*
X163486Y506269D01*
X163444Y506212D01*
X163398Y506157D01*
X163350Y506104D01*
X163299Y506055D01*
X163245Y506008D01*
X163189Y505964D01*
X163130Y505923D01*
X163070Y505885D01*
X163007Y505850D01*
X162943Y505819D01*
X162877Y505791D01*
X162810Y505767D01*
X162742Y505746D01*
X162672Y505729D01*
X162602Y505716D01*
X162532Y505707D01*
X162460Y505701D01*
X162389Y505699D01*
X162389Y505700D02*
X161048Y505700D01*
X162657Y505700D02*
X163729Y503555D01*
X166471Y504627D02*
X167543Y508381D01*
X166471Y504627D02*
X169152Y504627D01*
X168348Y505700D02*
X168348Y503555D01*
D10*
X203200Y463550D02*
X203200Y425450D01*
D12*
X202726Y424834D01*
X202237Y424229D01*
X201733Y423637D01*
X201215Y423057D01*
X200683Y422490D01*
X200137Y421936D01*
X199578Y421396D01*
X199005Y420870D01*
X198420Y420357D01*
X197823Y419860D01*
X197214Y419377D01*
X196593Y418909D01*
X195960Y418456D01*
X195317Y418019D01*
X194663Y417598D01*
X193999Y417194D01*
X193326Y416805D01*
X192643Y416433D01*
X191951Y416078D01*
X191251Y415740D01*
X190543Y415419D01*
X189827Y415116D01*
X189103Y414830D01*
X188374Y414562D01*
X187637Y414312D01*
X186895Y414081D01*
X186147Y413867D01*
X185395Y413672D01*
X184637Y413495D01*
X183876Y413337D01*
X183111Y413197D01*
X182343Y413077D01*
X181572Y412975D01*
X180799Y412892D01*
X180024Y412828D01*
X179248Y412783D01*
X178471Y412757D01*
X177693Y412750D01*
X176916Y412762D01*
X176139Y412793D01*
X175363Y412844D01*
X174588Y412913D01*
X173816Y413001D01*
X173046Y413108D01*
X172278Y413234D01*
X171514Y413378D01*
X170754Y413542D01*
X169998Y413724D01*
X169247Y413924D01*
X168500Y414142D01*
X167760Y414379D01*
X167025Y414634D01*
X166297Y414907D01*
X165576Y415198D01*
X164862Y415506D01*
X164156Y415831D01*
X163458Y416174D01*
X162768Y416534D01*
X162088Y416910D01*
X161417Y417303D01*
X160756Y417713D01*
X160105Y418138D01*
X159465Y418579D01*
X158836Y419036D01*
X158218Y419508D01*
X157612Y419995D01*
X157018Y420497D01*
X156436Y421013D01*
X155867Y421543D01*
X155312Y422087D01*
X154769Y422645D01*
X154241Y423215D01*
X153727Y423798D01*
X153227Y424394D01*
X152742Y425002D01*
X152272Y425621D01*
X151818Y426252D01*
X151379Y426894D01*
X150955Y427546D01*
X150548Y428209D01*
X150157Y428881D01*
X149783Y429563D01*
X149426Y430253D01*
X149086Y430952D01*
X148762Y431660D01*
X148457Y432374D01*
X148168Y433097D01*
X147898Y433826D01*
X147646Y434561D01*
X147411Y435303D01*
X147195Y436050D01*
X146997Y436802D01*
X146818Y437558D01*
X146657Y438319D01*
X146515Y439083D01*
X146392Y439851D01*
X146288Y440622D01*
X146202Y441395D01*
X146136Y442169D01*
X146088Y442945D01*
X146060Y443722D01*
X146050Y444500D01*
X146060Y445278D01*
X146088Y446055D01*
X146136Y446831D01*
X146202Y447605D01*
X146288Y448378D01*
X146392Y449149D01*
X146515Y449917D01*
X146657Y450681D01*
X146818Y451442D01*
X146997Y452198D01*
X147195Y452950D01*
X147411Y453697D01*
X147646Y454439D01*
X147898Y455174D01*
X148168Y455903D01*
X148457Y456626D01*
X148762Y457340D01*
X149086Y458048D01*
X149426Y458747D01*
X149783Y459437D01*
X150157Y460119D01*
X150548Y460791D01*
X150955Y461454D01*
X151379Y462106D01*
X151818Y462748D01*
X152272Y463379D01*
X152742Y463998D01*
X153227Y464606D01*
X153727Y465202D01*
X154241Y465785D01*
X154769Y466355D01*
X155312Y466913D01*
X155867Y467457D01*
X156436Y467987D01*
X157018Y468503D01*
X157612Y469005D01*
X158218Y469492D01*
X158836Y469964D01*
X159465Y470421D01*
X160105Y470862D01*
X160756Y471287D01*
X161417Y471697D01*
X162088Y472090D01*
X162768Y472466D01*
X163458Y472826D01*
X164156Y473169D01*
X164862Y473494D01*
X165576Y473802D01*
X166297Y474093D01*
X167025Y474366D01*
X167760Y474621D01*
X168500Y474858D01*
X169247Y475076D01*
X169998Y475276D01*
X170754Y475458D01*
X171514Y475622D01*
X172278Y475766D01*
X173046Y475892D01*
X173816Y475999D01*
X174588Y476087D01*
X175363Y476156D01*
X176139Y476207D01*
X176916Y476238D01*
X177693Y476250D01*
X178471Y476243D01*
X179248Y476217D01*
X180024Y476172D01*
X180799Y476108D01*
X181572Y476025D01*
X182343Y475923D01*
X183111Y475803D01*
X183876Y475663D01*
X184637Y475505D01*
X185395Y475328D01*
X186147Y475133D01*
X186895Y474919D01*
X187637Y474688D01*
X188374Y474438D01*
X189103Y474170D01*
X189827Y473884D01*
X190543Y473581D01*
X191251Y473260D01*
X191951Y472922D01*
X192643Y472567D01*
X193326Y472195D01*
X193999Y471806D01*
X194663Y471402D01*
X195317Y470981D01*
X195960Y470544D01*
X196593Y470091D01*
X197214Y469623D01*
X197823Y469140D01*
X198420Y468643D01*
X199005Y468130D01*
X199578Y467604D01*
X200137Y467064D01*
X200683Y466510D01*
X201215Y465943D01*
X201733Y465363D01*
X202237Y464771D01*
X202726Y464166D01*
X203200Y463550D01*
D13*
X152400Y444500D02*
X152408Y445123D01*
X152431Y445746D01*
X152469Y446369D01*
X152522Y446990D01*
X152591Y447609D01*
X152675Y448227D01*
X152774Y448842D01*
X152888Y449455D01*
X153017Y450065D01*
X153161Y450672D01*
X153320Y451275D01*
X153494Y451873D01*
X153682Y452468D01*
X153885Y453057D01*
X154102Y453641D01*
X154333Y454220D01*
X154579Y454793D01*
X154839Y455360D01*
X155112Y455920D01*
X155399Y456473D01*
X155700Y457020D01*
X156014Y457558D01*
X156341Y458089D01*
X156681Y458611D01*
X157033Y459126D01*
X157399Y459631D01*
X157776Y460127D01*
X158166Y460614D01*
X158567Y461091D01*
X158980Y461558D01*
X159404Y462014D01*
X159839Y462461D01*
X160286Y462896D01*
X160742Y463320D01*
X161209Y463733D01*
X161686Y464134D01*
X162173Y464524D01*
X162669Y464901D01*
X163174Y465267D01*
X163689Y465619D01*
X164211Y465959D01*
X164742Y466286D01*
X165280Y466600D01*
X165827Y466901D01*
X166380Y467188D01*
X166940Y467461D01*
X167507Y467721D01*
X168080Y467967D01*
X168659Y468198D01*
X169243Y468415D01*
X169832Y468618D01*
X170427Y468806D01*
X171025Y468980D01*
X171628Y469139D01*
X172235Y469283D01*
X172845Y469412D01*
X173458Y469526D01*
X174073Y469625D01*
X174691Y469709D01*
X175310Y469778D01*
X175931Y469831D01*
X176554Y469869D01*
X177177Y469892D01*
X177800Y469900D01*
X178423Y469892D01*
X179046Y469869D01*
X179669Y469831D01*
X180290Y469778D01*
X180909Y469709D01*
X181527Y469625D01*
X182142Y469526D01*
X182755Y469412D01*
X183365Y469283D01*
X183972Y469139D01*
X184575Y468980D01*
X185173Y468806D01*
X185768Y468618D01*
X186357Y468415D01*
X186941Y468198D01*
X187520Y467967D01*
X188093Y467721D01*
X188660Y467461D01*
X189220Y467188D01*
X189773Y466901D01*
X190320Y466600D01*
X190858Y466286D01*
X191389Y465959D01*
X191911Y465619D01*
X192426Y465267D01*
X192931Y464901D01*
X193427Y464524D01*
X193914Y464134D01*
X194391Y463733D01*
X194858Y463320D01*
X195314Y462896D01*
X195761Y462461D01*
X196196Y462014D01*
X196620Y461558D01*
X197033Y461091D01*
X197434Y460614D01*
X197824Y460127D01*
X198201Y459631D01*
X198567Y459126D01*
X198919Y458611D01*
X199259Y458089D01*
X199586Y457558D01*
X199900Y457020D01*
X200201Y456473D01*
X200488Y455920D01*
X200761Y455360D01*
X201021Y454793D01*
X201267Y454220D01*
X201498Y453641D01*
X201715Y453057D01*
X201918Y452468D01*
X202106Y451873D01*
X202280Y451275D01*
X202439Y450672D01*
X202583Y450065D01*
X202712Y449455D01*
X202826Y448842D01*
X202925Y448227D01*
X203009Y447609D01*
X203078Y446990D01*
X203131Y446369D01*
X203169Y445746D01*
X203192Y445123D01*
X203200Y444500D01*
X203192Y443877D01*
X203169Y443254D01*
X203131Y442631D01*
X203078Y442010D01*
X203009Y441391D01*
X202925Y440773D01*
X202826Y440158D01*
X202712Y439545D01*
X202583Y438935D01*
X202439Y438328D01*
X202280Y437725D01*
X202106Y437127D01*
X201918Y436532D01*
X201715Y435943D01*
X201498Y435359D01*
X201267Y434780D01*
X201021Y434207D01*
X200761Y433640D01*
X200488Y433080D01*
X200201Y432527D01*
X199900Y431980D01*
X199586Y431442D01*
X199259Y430911D01*
X198919Y430389D01*
X198567Y429874D01*
X198201Y429369D01*
X197824Y428873D01*
X197434Y428386D01*
X197033Y427909D01*
X196620Y427442D01*
X196196Y426986D01*
X195761Y426539D01*
X195314Y426104D01*
X194858Y425680D01*
X194391Y425267D01*
X193914Y424866D01*
X193427Y424476D01*
X192931Y424099D01*
X192426Y423733D01*
X191911Y423381D01*
X191389Y423041D01*
X190858Y422714D01*
X190320Y422400D01*
X189773Y422099D01*
X189220Y421812D01*
X188660Y421539D01*
X188093Y421279D01*
X187520Y421033D01*
X186941Y420802D01*
X186357Y420585D01*
X185768Y420382D01*
X185173Y420194D01*
X184575Y420020D01*
X183972Y419861D01*
X183365Y419717D01*
X182755Y419588D01*
X182142Y419474D01*
X181527Y419375D01*
X180909Y419291D01*
X180290Y419222D01*
X179669Y419169D01*
X179046Y419131D01*
X178423Y419108D01*
X177800Y419100D01*
X177177Y419108D01*
X176554Y419131D01*
X175931Y419169D01*
X175310Y419222D01*
X174691Y419291D01*
X174073Y419375D01*
X173458Y419474D01*
X172845Y419588D01*
X172235Y419717D01*
X171628Y419861D01*
X171025Y420020D01*
X170427Y420194D01*
X169832Y420382D01*
X169243Y420585D01*
X168659Y420802D01*
X168080Y421033D01*
X167507Y421279D01*
X166940Y421539D01*
X166380Y421812D01*
X165827Y422099D01*
X165280Y422400D01*
X164742Y422714D01*
X164211Y423041D01*
X163689Y423381D01*
X163174Y423733D01*
X162669Y424099D01*
X162173Y424476D01*
X161686Y424866D01*
X161209Y425267D01*
X160742Y425680D01*
X160286Y426104D01*
X159839Y426539D01*
X159404Y426986D01*
X158980Y427442D01*
X158567Y427909D01*
X158166Y428386D01*
X157776Y428873D01*
X157399Y429369D01*
X157033Y429874D01*
X156681Y430389D01*
X156341Y430911D01*
X156014Y431442D01*
X155700Y431980D01*
X155399Y432527D01*
X155112Y433080D01*
X154839Y433640D01*
X154579Y434207D01*
X154333Y434780D01*
X154102Y435359D01*
X153885Y435943D01*
X153682Y436532D01*
X153494Y437127D01*
X153320Y437725D01*
X153161Y438328D01*
X153017Y438935D01*
X152888Y439545D01*
X152774Y440158D01*
X152675Y440773D01*
X152591Y441391D01*
X152522Y442010D01*
X152469Y442631D01*
X152431Y443254D01*
X152408Y443877D01*
X152400Y444500D01*
D11*
X210185Y450469D02*
X210185Y461899D01*
X210185Y450469D02*
X215265Y450469D01*
X220091Y450469D02*
X225171Y450469D01*
X220091Y450469D02*
X220091Y461899D01*
X225171Y461899D01*
X223901Y456819D02*
X220091Y456819D01*
X229972Y461899D02*
X229972Y450469D01*
X229972Y461899D02*
X233147Y461899D01*
X233258Y461897D01*
X233368Y461891D01*
X233479Y461882D01*
X233589Y461868D01*
X233698Y461851D01*
X233807Y461830D01*
X233915Y461805D01*
X234022Y461776D01*
X234128Y461744D01*
X234233Y461708D01*
X234336Y461668D01*
X234438Y461625D01*
X234539Y461578D01*
X234638Y461527D01*
X234735Y461474D01*
X234829Y461417D01*
X234922Y461356D01*
X235013Y461293D01*
X235102Y461226D01*
X235188Y461156D01*
X235271Y461083D01*
X235353Y461008D01*
X235431Y460930D01*
X235506Y460848D01*
X235579Y460765D01*
X235649Y460679D01*
X235716Y460590D01*
X235779Y460499D01*
X235840Y460406D01*
X235897Y460312D01*
X235950Y460215D01*
X236001Y460116D01*
X236048Y460015D01*
X236091Y459913D01*
X236131Y459810D01*
X236167Y459705D01*
X236199Y459599D01*
X236228Y459492D01*
X236253Y459384D01*
X236274Y459275D01*
X236291Y459166D01*
X236305Y459056D01*
X236314Y458945D01*
X236320Y458835D01*
X236322Y458724D01*
X236322Y453644D01*
X236320Y453533D01*
X236314Y453423D01*
X236305Y453312D01*
X236291Y453202D01*
X236274Y453093D01*
X236253Y452984D01*
X236228Y452876D01*
X236199Y452769D01*
X236167Y452663D01*
X236131Y452558D01*
X236091Y452455D01*
X236048Y452353D01*
X236001Y452252D01*
X235950Y452153D01*
X235897Y452056D01*
X235840Y451962D01*
X235779Y451869D01*
X235716Y451778D01*
X235649Y451689D01*
X235579Y451603D01*
X235506Y451520D01*
X235431Y451438D01*
X235353Y451360D01*
X235271Y451285D01*
X235188Y451212D01*
X235102Y451142D01*
X235013Y451075D01*
X234922Y451012D01*
X234829Y450951D01*
X234734Y450894D01*
X234638Y450841D01*
X234539Y450790D01*
X234438Y450743D01*
X234336Y450700D01*
X234233Y450660D01*
X234128Y450624D01*
X234022Y450592D01*
X233915Y450563D01*
X233807Y450538D01*
X233698Y450517D01*
X233589Y450500D01*
X233479Y450486D01*
X233368Y450477D01*
X233258Y450471D01*
X233147Y450469D01*
X229972Y450469D01*
X241783Y459359D02*
X244958Y461899D01*
X244958Y450469D01*
X241783Y450469D02*
X248133Y450469D01*
D10*
X203200Y387350D02*
X203200Y349250D01*
D12*
X202726Y348634D01*
X202237Y348029D01*
X201733Y347437D01*
X201215Y346857D01*
X200683Y346290D01*
X200137Y345736D01*
X199578Y345196D01*
X199005Y344670D01*
X198420Y344157D01*
X197823Y343660D01*
X197214Y343177D01*
X196593Y342709D01*
X195960Y342256D01*
X195317Y341819D01*
X194663Y341398D01*
X193999Y340994D01*
X193326Y340605D01*
X192643Y340233D01*
X191951Y339878D01*
X191251Y339540D01*
X190543Y339219D01*
X189827Y338916D01*
X189103Y338630D01*
X188374Y338362D01*
X187637Y338112D01*
X186895Y337881D01*
X186147Y337667D01*
X185395Y337472D01*
X184637Y337295D01*
X183876Y337137D01*
X183111Y336997D01*
X182343Y336877D01*
X181572Y336775D01*
X180799Y336692D01*
X180024Y336628D01*
X179248Y336583D01*
X178471Y336557D01*
X177693Y336550D01*
X176916Y336562D01*
X176139Y336593D01*
X175363Y336644D01*
X174588Y336713D01*
X173816Y336801D01*
X173046Y336908D01*
X172278Y337034D01*
X171514Y337178D01*
X170754Y337342D01*
X169998Y337524D01*
X169247Y337724D01*
X168500Y337942D01*
X167760Y338179D01*
X167025Y338434D01*
X166297Y338707D01*
X165576Y338998D01*
X164862Y339306D01*
X164156Y339631D01*
X163458Y339974D01*
X162768Y340334D01*
X162088Y340710D01*
X161417Y341103D01*
X160756Y341513D01*
X160105Y341938D01*
X159465Y342379D01*
X158836Y342836D01*
X158218Y343308D01*
X157612Y343795D01*
X157018Y344297D01*
X156436Y344813D01*
X155867Y345343D01*
X155312Y345887D01*
X154769Y346445D01*
X154241Y347015D01*
X153727Y347598D01*
X153227Y348194D01*
X152742Y348802D01*
X152272Y349421D01*
X151818Y350052D01*
X151379Y350694D01*
X150955Y351346D01*
X150548Y352009D01*
X150157Y352681D01*
X149783Y353363D01*
X149426Y354053D01*
X149086Y354752D01*
X148762Y355460D01*
X148457Y356174D01*
X148168Y356897D01*
X147898Y357626D01*
X147646Y358361D01*
X147411Y359103D01*
X147195Y359850D01*
X146997Y360602D01*
X146818Y361358D01*
X146657Y362119D01*
X146515Y362883D01*
X146392Y363651D01*
X146288Y364422D01*
X146202Y365195D01*
X146136Y365969D01*
X146088Y366745D01*
X146060Y367522D01*
X146050Y368300D01*
X146060Y369078D01*
X146088Y369855D01*
X146136Y370631D01*
X146202Y371405D01*
X146288Y372178D01*
X146392Y372949D01*
X146515Y373717D01*
X146657Y374481D01*
X146818Y375242D01*
X146997Y375998D01*
X147195Y376750D01*
X147411Y377497D01*
X147646Y378239D01*
X147898Y378974D01*
X148168Y379703D01*
X148457Y380426D01*
X148762Y381140D01*
X149086Y381848D01*
X149426Y382547D01*
X149783Y383237D01*
X150157Y383919D01*
X150548Y384591D01*
X150955Y385254D01*
X151379Y385906D01*
X151818Y386548D01*
X152272Y387179D01*
X152742Y387798D01*
X153227Y388406D01*
X153727Y389002D01*
X154241Y389585D01*
X154769Y390155D01*
X155312Y390713D01*
X155867Y391257D01*
X156436Y391787D01*
X157018Y392303D01*
X157612Y392805D01*
X158218Y393292D01*
X158836Y393764D01*
X159465Y394221D01*
X160105Y394662D01*
X160756Y395087D01*
X161417Y395497D01*
X162088Y395890D01*
X162768Y396266D01*
X163458Y396626D01*
X164156Y396969D01*
X164862Y397294D01*
X165576Y397602D01*
X166297Y397893D01*
X167025Y398166D01*
X167760Y398421D01*
X168500Y398658D01*
X169247Y398876D01*
X169998Y399076D01*
X170754Y399258D01*
X171514Y399422D01*
X172278Y399566D01*
X173046Y399692D01*
X173816Y399799D01*
X174588Y399887D01*
X175363Y399956D01*
X176139Y400007D01*
X176916Y400038D01*
X177693Y400050D01*
X178471Y400043D01*
X179248Y400017D01*
X180024Y399972D01*
X180799Y399908D01*
X181572Y399825D01*
X182343Y399723D01*
X183111Y399603D01*
X183876Y399463D01*
X184637Y399305D01*
X185395Y399128D01*
X186147Y398933D01*
X186895Y398719D01*
X187637Y398488D01*
X188374Y398238D01*
X189103Y397970D01*
X189827Y397684D01*
X190543Y397381D01*
X191251Y397060D01*
X191951Y396722D01*
X192643Y396367D01*
X193326Y395995D01*
X193999Y395606D01*
X194663Y395202D01*
X195317Y394781D01*
X195960Y394344D01*
X196593Y393891D01*
X197214Y393423D01*
X197823Y392940D01*
X198420Y392443D01*
X199005Y391930D01*
X199578Y391404D01*
X200137Y390864D01*
X200683Y390310D01*
X201215Y389743D01*
X201733Y389163D01*
X202237Y388571D01*
X202726Y387966D01*
X203200Y387350D01*
D13*
X152400Y368300D02*
X152408Y368923D01*
X152431Y369546D01*
X152469Y370169D01*
X152522Y370790D01*
X152591Y371409D01*
X152675Y372027D01*
X152774Y372642D01*
X152888Y373255D01*
X153017Y373865D01*
X153161Y374472D01*
X153320Y375075D01*
X153494Y375673D01*
X153682Y376268D01*
X153885Y376857D01*
X154102Y377441D01*
X154333Y378020D01*
X154579Y378593D01*
X154839Y379160D01*
X155112Y379720D01*
X155399Y380273D01*
X155700Y380820D01*
X156014Y381358D01*
X156341Y381889D01*
X156681Y382411D01*
X157033Y382926D01*
X157399Y383431D01*
X157776Y383927D01*
X158166Y384414D01*
X158567Y384891D01*
X158980Y385358D01*
X159404Y385814D01*
X159839Y386261D01*
X160286Y386696D01*
X160742Y387120D01*
X161209Y387533D01*
X161686Y387934D01*
X162173Y388324D01*
X162669Y388701D01*
X163174Y389067D01*
X163689Y389419D01*
X164211Y389759D01*
X164742Y390086D01*
X165280Y390400D01*
X165827Y390701D01*
X166380Y390988D01*
X166940Y391261D01*
X167507Y391521D01*
X168080Y391767D01*
X168659Y391998D01*
X169243Y392215D01*
X169832Y392418D01*
X170427Y392606D01*
X171025Y392780D01*
X171628Y392939D01*
X172235Y393083D01*
X172845Y393212D01*
X173458Y393326D01*
X174073Y393425D01*
X174691Y393509D01*
X175310Y393578D01*
X175931Y393631D01*
X176554Y393669D01*
X177177Y393692D01*
X177800Y393700D01*
X178423Y393692D01*
X179046Y393669D01*
X179669Y393631D01*
X180290Y393578D01*
X180909Y393509D01*
X181527Y393425D01*
X182142Y393326D01*
X182755Y393212D01*
X183365Y393083D01*
X183972Y392939D01*
X184575Y392780D01*
X185173Y392606D01*
X185768Y392418D01*
X186357Y392215D01*
X186941Y391998D01*
X187520Y391767D01*
X188093Y391521D01*
X188660Y391261D01*
X189220Y390988D01*
X189773Y390701D01*
X190320Y390400D01*
X190858Y390086D01*
X191389Y389759D01*
X191911Y389419D01*
X192426Y389067D01*
X192931Y388701D01*
X193427Y388324D01*
X193914Y387934D01*
X194391Y387533D01*
X194858Y387120D01*
X195314Y386696D01*
X195761Y386261D01*
X196196Y385814D01*
X196620Y385358D01*
X197033Y384891D01*
X197434Y384414D01*
X197824Y383927D01*
X198201Y383431D01*
X198567Y382926D01*
X198919Y382411D01*
X199259Y381889D01*
X199586Y381358D01*
X199900Y380820D01*
X200201Y380273D01*
X200488Y379720D01*
X200761Y379160D01*
X201021Y378593D01*
X201267Y378020D01*
X201498Y377441D01*
X201715Y376857D01*
X201918Y376268D01*
X202106Y375673D01*
X202280Y375075D01*
X202439Y374472D01*
X202583Y373865D01*
X202712Y373255D01*
X202826Y372642D01*
X202925Y372027D01*
X203009Y371409D01*
X203078Y370790D01*
X203131Y370169D01*
X203169Y369546D01*
X203192Y368923D01*
X203200Y368300D01*
X203192Y367677D01*
X203169Y367054D01*
X203131Y366431D01*
X203078Y365810D01*
X203009Y365191D01*
X202925Y364573D01*
X202826Y363958D01*
X202712Y363345D01*
X202583Y362735D01*
X202439Y362128D01*
X202280Y361525D01*
X202106Y360927D01*
X201918Y360332D01*
X201715Y359743D01*
X201498Y359159D01*
X201267Y358580D01*
X201021Y358007D01*
X200761Y357440D01*
X200488Y356880D01*
X200201Y356327D01*
X199900Y355780D01*
X199586Y355242D01*
X199259Y354711D01*
X198919Y354189D01*
X198567Y353674D01*
X198201Y353169D01*
X197824Y352673D01*
X197434Y352186D01*
X197033Y351709D01*
X196620Y351242D01*
X196196Y350786D01*
X195761Y350339D01*
X195314Y349904D01*
X194858Y349480D01*
X194391Y349067D01*
X193914Y348666D01*
X193427Y348276D01*
X192931Y347899D01*
X192426Y347533D01*
X191911Y347181D01*
X191389Y346841D01*
X190858Y346514D01*
X190320Y346200D01*
X189773Y345899D01*
X189220Y345612D01*
X188660Y345339D01*
X188093Y345079D01*
X187520Y344833D01*
X186941Y344602D01*
X186357Y344385D01*
X185768Y344182D01*
X185173Y343994D01*
X184575Y343820D01*
X183972Y343661D01*
X183365Y343517D01*
X182755Y343388D01*
X182142Y343274D01*
X181527Y343175D01*
X180909Y343091D01*
X180290Y343022D01*
X179669Y342969D01*
X179046Y342931D01*
X178423Y342908D01*
X177800Y342900D01*
X177177Y342908D01*
X176554Y342931D01*
X175931Y342969D01*
X175310Y343022D01*
X174691Y343091D01*
X174073Y343175D01*
X173458Y343274D01*
X172845Y343388D01*
X172235Y343517D01*
X171628Y343661D01*
X171025Y343820D01*
X170427Y343994D01*
X169832Y344182D01*
X169243Y344385D01*
X168659Y344602D01*
X168080Y344833D01*
X167507Y345079D01*
X166940Y345339D01*
X166380Y345612D01*
X165827Y345899D01*
X165280Y346200D01*
X164742Y346514D01*
X164211Y346841D01*
X163689Y347181D01*
X163174Y347533D01*
X162669Y347899D01*
X162173Y348276D01*
X161686Y348666D01*
X161209Y349067D01*
X160742Y349480D01*
X160286Y349904D01*
X159839Y350339D01*
X159404Y350786D01*
X158980Y351242D01*
X158567Y351709D01*
X158166Y352186D01*
X157776Y352673D01*
X157399Y353169D01*
X157033Y353674D01*
X156681Y354189D01*
X156341Y354711D01*
X156014Y355242D01*
X155700Y355780D01*
X155399Y356327D01*
X155112Y356880D01*
X154839Y357440D01*
X154579Y358007D01*
X154333Y358580D01*
X154102Y359159D01*
X153885Y359743D01*
X153682Y360332D01*
X153494Y360927D01*
X153320Y361525D01*
X153161Y362128D01*
X153017Y362735D01*
X152888Y363345D01*
X152774Y363958D01*
X152675Y364573D01*
X152591Y365191D01*
X152522Y365810D01*
X152469Y366431D01*
X152431Y367054D01*
X152408Y367677D01*
X152400Y368300D01*
D11*
X210185Y374269D02*
X210185Y385699D01*
X210185Y374269D02*
X215265Y374269D01*
X220091Y374269D02*
X225171Y374269D01*
X220091Y374269D02*
X220091Y385699D01*
X225171Y385699D01*
X223901Y380619D02*
X220091Y380619D01*
X229972Y385699D02*
X229972Y374269D01*
X229972Y385699D02*
X233147Y385699D01*
X233258Y385697D01*
X233368Y385691D01*
X233479Y385682D01*
X233589Y385668D01*
X233698Y385651D01*
X233807Y385630D01*
X233915Y385605D01*
X234022Y385576D01*
X234128Y385544D01*
X234233Y385508D01*
X234336Y385468D01*
X234438Y385425D01*
X234539Y385378D01*
X234638Y385327D01*
X234735Y385274D01*
X234829Y385217D01*
X234922Y385156D01*
X235013Y385093D01*
X235102Y385026D01*
X235188Y384956D01*
X235271Y384883D01*
X235353Y384808D01*
X235431Y384730D01*
X235506Y384648D01*
X235579Y384565D01*
X235649Y384479D01*
X235716Y384390D01*
X235779Y384299D01*
X235840Y384206D01*
X235897Y384112D01*
X235950Y384015D01*
X236001Y383916D01*
X236048Y383815D01*
X236091Y383713D01*
X236131Y383610D01*
X236167Y383505D01*
X236199Y383399D01*
X236228Y383292D01*
X236253Y383184D01*
X236274Y383075D01*
X236291Y382966D01*
X236305Y382856D01*
X236314Y382745D01*
X236320Y382635D01*
X236322Y382524D01*
X236322Y377444D01*
X236320Y377333D01*
X236314Y377223D01*
X236305Y377112D01*
X236291Y377002D01*
X236274Y376893D01*
X236253Y376784D01*
X236228Y376676D01*
X236199Y376569D01*
X236167Y376463D01*
X236131Y376358D01*
X236091Y376255D01*
X236048Y376153D01*
X236001Y376052D01*
X235950Y375953D01*
X235897Y375856D01*
X235840Y375762D01*
X235779Y375669D01*
X235716Y375578D01*
X235649Y375489D01*
X235579Y375403D01*
X235506Y375320D01*
X235431Y375238D01*
X235353Y375160D01*
X235271Y375085D01*
X235188Y375012D01*
X235102Y374942D01*
X235013Y374875D01*
X234922Y374812D01*
X234829Y374751D01*
X234734Y374694D01*
X234638Y374641D01*
X234539Y374590D01*
X234438Y374543D01*
X234336Y374500D01*
X234233Y374460D01*
X234128Y374424D01*
X234022Y374392D01*
X233915Y374363D01*
X233807Y374338D01*
X233698Y374317D01*
X233589Y374300D01*
X233479Y374286D01*
X233368Y374277D01*
X233258Y374271D01*
X233147Y374269D01*
X229972Y374269D01*
X245275Y385700D02*
X245379Y385698D01*
X245484Y385692D01*
X245588Y385683D01*
X245691Y385670D01*
X245794Y385652D01*
X245896Y385632D01*
X245998Y385607D01*
X246098Y385579D01*
X246198Y385547D01*
X246296Y385511D01*
X246393Y385472D01*
X246488Y385430D01*
X246582Y385384D01*
X246674Y385334D01*
X246764Y385282D01*
X246852Y385226D01*
X246938Y385166D01*
X247022Y385104D01*
X247103Y385039D01*
X247182Y384971D01*
X247259Y384899D01*
X247332Y384826D01*
X247404Y384749D01*
X247472Y384670D01*
X247537Y384589D01*
X247599Y384505D01*
X247659Y384419D01*
X247715Y384331D01*
X247767Y384241D01*
X247817Y384149D01*
X247863Y384055D01*
X247905Y383960D01*
X247944Y383863D01*
X247980Y383765D01*
X248012Y383665D01*
X248040Y383565D01*
X248065Y383463D01*
X248085Y383361D01*
X248103Y383258D01*
X248116Y383155D01*
X248125Y383051D01*
X248131Y382946D01*
X248133Y382842D01*
X245275Y385699D02*
X245157Y385697D01*
X245038Y385691D01*
X244920Y385682D01*
X244803Y385669D01*
X244686Y385651D01*
X244569Y385631D01*
X244453Y385606D01*
X244338Y385578D01*
X244225Y385545D01*
X244112Y385510D01*
X244000Y385470D01*
X243890Y385428D01*
X243781Y385381D01*
X243673Y385331D01*
X243568Y385278D01*
X243464Y385221D01*
X243362Y385161D01*
X243262Y385098D01*
X243164Y385031D01*
X243068Y384962D01*
X242975Y384889D01*
X242884Y384813D01*
X242795Y384735D01*
X242709Y384653D01*
X242626Y384569D01*
X242545Y384483D01*
X242468Y384393D01*
X242393Y384302D01*
X242321Y384208D01*
X242252Y384111D01*
X242187Y384013D01*
X242124Y383912D01*
X242065Y383809D01*
X242009Y383705D01*
X241957Y383599D01*
X241908Y383491D01*
X241863Y383382D01*
X241821Y383271D01*
X241783Y383159D01*
X247180Y380620D02*
X247256Y380695D01*
X247331Y380774D01*
X247402Y380855D01*
X247471Y380939D01*
X247536Y381025D01*
X247598Y381113D01*
X247658Y381203D01*
X247714Y381295D01*
X247767Y381390D01*
X247816Y381486D01*
X247862Y381584D01*
X247905Y381683D01*
X247944Y381784D01*
X247979Y381886D01*
X248011Y381989D01*
X248039Y382093D01*
X248064Y382198D01*
X248085Y382305D01*
X248102Y382411D01*
X248115Y382518D01*
X248124Y382626D01*
X248130Y382734D01*
X248132Y382842D01*
X247180Y380619D02*
X241783Y374269D01*
X248133Y374269D01*
D10*
X203200Y311150D02*
X203200Y273050D01*
D12*
X202726Y272434D01*
X202237Y271829D01*
X201733Y271237D01*
X201215Y270657D01*
X200683Y270090D01*
X200137Y269536D01*
X199578Y268996D01*
X199005Y268470D01*
X198420Y267957D01*
X197823Y267460D01*
X197214Y266977D01*
X196593Y266509D01*
X195960Y266056D01*
X195317Y265619D01*
X194663Y265198D01*
X193999Y264794D01*
X193326Y264405D01*
X192643Y264033D01*
X191951Y263678D01*
X191251Y263340D01*
X190543Y263019D01*
X189827Y262716D01*
X189103Y262430D01*
X188374Y262162D01*
X187637Y261912D01*
X186895Y261681D01*
X186147Y261467D01*
X185395Y261272D01*
X184637Y261095D01*
X183876Y260937D01*
X183111Y260797D01*
X182343Y260677D01*
X181572Y260575D01*
X180799Y260492D01*
X180024Y260428D01*
X179248Y260383D01*
X178471Y260357D01*
X177693Y260350D01*
X176916Y260362D01*
X176139Y260393D01*
X175363Y260444D01*
X174588Y260513D01*
X173816Y260601D01*
X173046Y260708D01*
X172278Y260834D01*
X171514Y260978D01*
X170754Y261142D01*
X169998Y261324D01*
X169247Y261524D01*
X168500Y261742D01*
X167760Y261979D01*
X167025Y262234D01*
X166297Y262507D01*
X165576Y262798D01*
X164862Y263106D01*
X164156Y263431D01*
X163458Y263774D01*
X162768Y264134D01*
X162088Y264510D01*
X161417Y264903D01*
X160756Y265313D01*
X160105Y265738D01*
X159465Y266179D01*
X158836Y266636D01*
X158218Y267108D01*
X157612Y267595D01*
X157018Y268097D01*
X156436Y268613D01*
X155867Y269143D01*
X155312Y269687D01*
X154769Y270245D01*
X154241Y270815D01*
X153727Y271398D01*
X153227Y271994D01*
X152742Y272602D01*
X152272Y273221D01*
X151818Y273852D01*
X151379Y274494D01*
X150955Y275146D01*
X150548Y275809D01*
X150157Y276481D01*
X149783Y277163D01*
X149426Y277853D01*
X149086Y278552D01*
X148762Y279260D01*
X148457Y279974D01*
X148168Y280697D01*
X147898Y281426D01*
X147646Y282161D01*
X147411Y282903D01*
X147195Y283650D01*
X146997Y284402D01*
X146818Y285158D01*
X146657Y285919D01*
X146515Y286683D01*
X146392Y287451D01*
X146288Y288222D01*
X146202Y288995D01*
X146136Y289769D01*
X146088Y290545D01*
X146060Y291322D01*
X146050Y292100D01*
X146060Y292878D01*
X146088Y293655D01*
X146136Y294431D01*
X146202Y295205D01*
X146288Y295978D01*
X146392Y296749D01*
X146515Y297517D01*
X146657Y298281D01*
X146818Y299042D01*
X146997Y299798D01*
X147195Y300550D01*
X147411Y301297D01*
X147646Y302039D01*
X147898Y302774D01*
X148168Y303503D01*
X148457Y304226D01*
X148762Y304940D01*
X149086Y305648D01*
X149426Y306347D01*
X149783Y307037D01*
X150157Y307719D01*
X150548Y308391D01*
X150955Y309054D01*
X151379Y309706D01*
X151818Y310348D01*
X152272Y310979D01*
X152742Y311598D01*
X153227Y312206D01*
X153727Y312802D01*
X154241Y313385D01*
X154769Y313955D01*
X155312Y314513D01*
X155867Y315057D01*
X156436Y315587D01*
X157018Y316103D01*
X157612Y316605D01*
X158218Y317092D01*
X158836Y317564D01*
X159465Y318021D01*
X160105Y318462D01*
X160756Y318887D01*
X161417Y319297D01*
X162088Y319690D01*
X162768Y320066D01*
X163458Y320426D01*
X164156Y320769D01*
X164862Y321094D01*
X165576Y321402D01*
X166297Y321693D01*
X167025Y321966D01*
X167760Y322221D01*
X168500Y322458D01*
X169247Y322676D01*
X169998Y322876D01*
X170754Y323058D01*
X171514Y323222D01*
X172278Y323366D01*
X173046Y323492D01*
X173816Y323599D01*
X174588Y323687D01*
X175363Y323756D01*
X176139Y323807D01*
X176916Y323838D01*
X177693Y323850D01*
X178471Y323843D01*
X179248Y323817D01*
X180024Y323772D01*
X180799Y323708D01*
X181572Y323625D01*
X182343Y323523D01*
X183111Y323403D01*
X183876Y323263D01*
X184637Y323105D01*
X185395Y322928D01*
X186147Y322733D01*
X186895Y322519D01*
X187637Y322288D01*
X188374Y322038D01*
X189103Y321770D01*
X189827Y321484D01*
X190543Y321181D01*
X191251Y320860D01*
X191951Y320522D01*
X192643Y320167D01*
X193326Y319795D01*
X193999Y319406D01*
X194663Y319002D01*
X195317Y318581D01*
X195960Y318144D01*
X196593Y317691D01*
X197214Y317223D01*
X197823Y316740D01*
X198420Y316243D01*
X199005Y315730D01*
X199578Y315204D01*
X200137Y314664D01*
X200683Y314110D01*
X201215Y313543D01*
X201733Y312963D01*
X202237Y312371D01*
X202726Y311766D01*
X203200Y311150D01*
D13*
X152400Y292100D02*
X152408Y292723D01*
X152431Y293346D01*
X152469Y293969D01*
X152522Y294590D01*
X152591Y295209D01*
X152675Y295827D01*
X152774Y296442D01*
X152888Y297055D01*
X153017Y297665D01*
X153161Y298272D01*
X153320Y298875D01*
X153494Y299473D01*
X153682Y300068D01*
X153885Y300657D01*
X154102Y301241D01*
X154333Y301820D01*
X154579Y302393D01*
X154839Y302960D01*
X155112Y303520D01*
X155399Y304073D01*
X155700Y304620D01*
X156014Y305158D01*
X156341Y305689D01*
X156681Y306211D01*
X157033Y306726D01*
X157399Y307231D01*
X157776Y307727D01*
X158166Y308214D01*
X158567Y308691D01*
X158980Y309158D01*
X159404Y309614D01*
X159839Y310061D01*
X160286Y310496D01*
X160742Y310920D01*
X161209Y311333D01*
X161686Y311734D01*
X162173Y312124D01*
X162669Y312501D01*
X163174Y312867D01*
X163689Y313219D01*
X164211Y313559D01*
X164742Y313886D01*
X165280Y314200D01*
X165827Y314501D01*
X166380Y314788D01*
X166940Y315061D01*
X167507Y315321D01*
X168080Y315567D01*
X168659Y315798D01*
X169243Y316015D01*
X169832Y316218D01*
X170427Y316406D01*
X171025Y316580D01*
X171628Y316739D01*
X172235Y316883D01*
X172845Y317012D01*
X173458Y317126D01*
X174073Y317225D01*
X174691Y317309D01*
X175310Y317378D01*
X175931Y317431D01*
X176554Y317469D01*
X177177Y317492D01*
X177800Y317500D01*
X178423Y317492D01*
X179046Y317469D01*
X179669Y317431D01*
X180290Y317378D01*
X180909Y317309D01*
X181527Y317225D01*
X182142Y317126D01*
X182755Y317012D01*
X183365Y316883D01*
X183972Y316739D01*
X184575Y316580D01*
X185173Y316406D01*
X185768Y316218D01*
X186357Y316015D01*
X186941Y315798D01*
X187520Y315567D01*
X188093Y315321D01*
X188660Y315061D01*
X189220Y314788D01*
X189773Y314501D01*
X190320Y314200D01*
X190858Y313886D01*
X191389Y313559D01*
X191911Y313219D01*
X192426Y312867D01*
X192931Y312501D01*
X193427Y312124D01*
X193914Y311734D01*
X194391Y311333D01*
X194858Y310920D01*
X195314Y310496D01*
X195761Y310061D01*
X196196Y309614D01*
X196620Y309158D01*
X197033Y308691D01*
X197434Y308214D01*
X197824Y307727D01*
X198201Y307231D01*
X198567Y306726D01*
X198919Y306211D01*
X199259Y305689D01*
X199586Y305158D01*
X199900Y304620D01*
X200201Y304073D01*
X200488Y303520D01*
X200761Y302960D01*
X201021Y302393D01*
X201267Y301820D01*
X201498Y301241D01*
X201715Y300657D01*
X201918Y300068D01*
X202106Y299473D01*
X202280Y298875D01*
X202439Y298272D01*
X202583Y297665D01*
X202712Y297055D01*
X202826Y296442D01*
X202925Y295827D01*
X203009Y295209D01*
X203078Y294590D01*
X203131Y293969D01*
X203169Y293346D01*
X203192Y292723D01*
X203200Y292100D01*
X203192Y291477D01*
X203169Y290854D01*
X203131Y290231D01*
X203078Y289610D01*
X203009Y288991D01*
X202925Y288373D01*
X202826Y287758D01*
X202712Y287145D01*
X202583Y286535D01*
X202439Y285928D01*
X202280Y285325D01*
X202106Y284727D01*
X201918Y284132D01*
X201715Y283543D01*
X201498Y282959D01*
X201267Y282380D01*
X201021Y281807D01*
X200761Y281240D01*
X200488Y280680D01*
X200201Y280127D01*
X199900Y279580D01*
X199586Y279042D01*
X199259Y278511D01*
X198919Y277989D01*
X198567Y277474D01*
X198201Y276969D01*
X197824Y276473D01*
X197434Y275986D01*
X197033Y275509D01*
X196620Y275042D01*
X196196Y274586D01*
X195761Y274139D01*
X195314Y273704D01*
X194858Y273280D01*
X194391Y272867D01*
X193914Y272466D01*
X193427Y272076D01*
X192931Y271699D01*
X192426Y271333D01*
X191911Y270981D01*
X191389Y270641D01*
X190858Y270314D01*
X190320Y270000D01*
X189773Y269699D01*
X189220Y269412D01*
X188660Y269139D01*
X188093Y268879D01*
X187520Y268633D01*
X186941Y268402D01*
X186357Y268185D01*
X185768Y267982D01*
X185173Y267794D01*
X184575Y267620D01*
X183972Y267461D01*
X183365Y267317D01*
X182755Y267188D01*
X182142Y267074D01*
X181527Y266975D01*
X180909Y266891D01*
X180290Y266822D01*
X179669Y266769D01*
X179046Y266731D01*
X178423Y266708D01*
X177800Y266700D01*
X177177Y266708D01*
X176554Y266731D01*
X175931Y266769D01*
X175310Y266822D01*
X174691Y266891D01*
X174073Y266975D01*
X173458Y267074D01*
X172845Y267188D01*
X172235Y267317D01*
X171628Y267461D01*
X171025Y267620D01*
X170427Y267794D01*
X169832Y267982D01*
X169243Y268185D01*
X168659Y268402D01*
X168080Y268633D01*
X167507Y268879D01*
X166940Y269139D01*
X166380Y269412D01*
X165827Y269699D01*
X165280Y270000D01*
X164742Y270314D01*
X164211Y270641D01*
X163689Y270981D01*
X163174Y271333D01*
X162669Y271699D01*
X162173Y272076D01*
X161686Y272466D01*
X161209Y272867D01*
X160742Y273280D01*
X160286Y273704D01*
X159839Y274139D01*
X159404Y274586D01*
X158980Y275042D01*
X158567Y275509D01*
X158166Y275986D01*
X157776Y276473D01*
X157399Y276969D01*
X157033Y277474D01*
X156681Y277989D01*
X156341Y278511D01*
X156014Y279042D01*
X155700Y279580D01*
X155399Y280127D01*
X155112Y280680D01*
X154839Y281240D01*
X154579Y281807D01*
X154333Y282380D01*
X154102Y282959D01*
X153885Y283543D01*
X153682Y284132D01*
X153494Y284727D01*
X153320Y285325D01*
X153161Y285928D01*
X153017Y286535D01*
X152888Y287145D01*
X152774Y287758D01*
X152675Y288373D01*
X152591Y288991D01*
X152522Y289610D01*
X152469Y290231D01*
X152431Y290854D01*
X152408Y291477D01*
X152400Y292100D01*
D11*
X210185Y298069D02*
X210185Y309499D01*
X210185Y298069D02*
X215265Y298069D01*
X220091Y298069D02*
X225171Y298069D01*
X220091Y298069D02*
X220091Y309499D01*
X225171Y309499D01*
X223901Y304419D02*
X220091Y304419D01*
X229972Y309499D02*
X229972Y298069D01*
X229972Y309499D02*
X233147Y309499D01*
X233258Y309497D01*
X233368Y309491D01*
X233479Y309482D01*
X233589Y309468D01*
X233698Y309451D01*
X233807Y309430D01*
X233915Y309405D01*
X234022Y309376D01*
X234128Y309344D01*
X234233Y309308D01*
X234336Y309268D01*
X234438Y309225D01*
X234539Y309178D01*
X234638Y309127D01*
X234735Y309074D01*
X234829Y309017D01*
X234922Y308956D01*
X235013Y308893D01*
X235102Y308826D01*
X235188Y308756D01*
X235271Y308683D01*
X235353Y308608D01*
X235431Y308530D01*
X235506Y308448D01*
X235579Y308365D01*
X235649Y308279D01*
X235716Y308190D01*
X235779Y308099D01*
X235840Y308006D01*
X235897Y307912D01*
X235950Y307815D01*
X236001Y307716D01*
X236048Y307615D01*
X236091Y307513D01*
X236131Y307410D01*
X236167Y307305D01*
X236199Y307199D01*
X236228Y307092D01*
X236253Y306984D01*
X236274Y306875D01*
X236291Y306766D01*
X236305Y306656D01*
X236314Y306545D01*
X236320Y306435D01*
X236322Y306324D01*
X236322Y301244D01*
X236320Y301133D01*
X236314Y301023D01*
X236305Y300912D01*
X236291Y300802D01*
X236274Y300693D01*
X236253Y300584D01*
X236228Y300476D01*
X236199Y300369D01*
X236167Y300263D01*
X236131Y300158D01*
X236091Y300055D01*
X236048Y299953D01*
X236001Y299852D01*
X235950Y299753D01*
X235897Y299656D01*
X235840Y299562D01*
X235779Y299469D01*
X235716Y299378D01*
X235649Y299289D01*
X235579Y299203D01*
X235506Y299120D01*
X235431Y299038D01*
X235353Y298960D01*
X235271Y298885D01*
X235188Y298812D01*
X235102Y298742D01*
X235013Y298675D01*
X234922Y298612D01*
X234829Y298551D01*
X234734Y298494D01*
X234638Y298441D01*
X234539Y298390D01*
X234438Y298343D01*
X234336Y298300D01*
X234233Y298260D01*
X234128Y298224D01*
X234022Y298192D01*
X233915Y298163D01*
X233807Y298138D01*
X233698Y298117D01*
X233589Y298100D01*
X233479Y298086D01*
X233368Y298077D01*
X233258Y298071D01*
X233147Y298069D01*
X229972Y298069D01*
X241783Y298069D02*
X244958Y298069D01*
X245069Y298071D01*
X245179Y298077D01*
X245290Y298086D01*
X245400Y298100D01*
X245509Y298117D01*
X245618Y298138D01*
X245726Y298163D01*
X245833Y298192D01*
X245939Y298224D01*
X246044Y298260D01*
X246147Y298300D01*
X246249Y298343D01*
X246350Y298390D01*
X246449Y298441D01*
X246545Y298494D01*
X246640Y298551D01*
X246733Y298612D01*
X246824Y298675D01*
X246913Y298742D01*
X246999Y298812D01*
X247082Y298885D01*
X247164Y298960D01*
X247242Y299038D01*
X247317Y299120D01*
X247390Y299203D01*
X247460Y299289D01*
X247527Y299378D01*
X247590Y299469D01*
X247651Y299562D01*
X247708Y299656D01*
X247761Y299753D01*
X247812Y299852D01*
X247859Y299953D01*
X247902Y300055D01*
X247942Y300158D01*
X247978Y300263D01*
X248010Y300369D01*
X248039Y300476D01*
X248064Y300584D01*
X248085Y300693D01*
X248102Y300802D01*
X248116Y300912D01*
X248125Y301023D01*
X248131Y301133D01*
X248133Y301244D01*
X248131Y301355D01*
X248125Y301465D01*
X248116Y301576D01*
X248102Y301686D01*
X248085Y301795D01*
X248064Y301904D01*
X248039Y302012D01*
X248010Y302119D01*
X247978Y302225D01*
X247942Y302330D01*
X247902Y302433D01*
X247859Y302535D01*
X247812Y302636D01*
X247761Y302735D01*
X247708Y302831D01*
X247651Y302926D01*
X247590Y303019D01*
X247527Y303110D01*
X247460Y303199D01*
X247390Y303285D01*
X247317Y303368D01*
X247242Y303450D01*
X247164Y303528D01*
X247082Y303603D01*
X246999Y303676D01*
X246913Y303746D01*
X246824Y303813D01*
X246733Y303876D01*
X246640Y303937D01*
X246546Y303994D01*
X246449Y304047D01*
X246350Y304098D01*
X246249Y304145D01*
X246147Y304188D01*
X246044Y304228D01*
X245939Y304264D01*
X245833Y304296D01*
X245726Y304325D01*
X245618Y304350D01*
X245509Y304371D01*
X245400Y304388D01*
X245290Y304402D01*
X245179Y304411D01*
X245069Y304417D01*
X244958Y304419D01*
X245593Y309499D02*
X241783Y309499D01*
X245593Y309499D02*
X245693Y309497D01*
X245792Y309491D01*
X245892Y309481D01*
X245990Y309468D01*
X246089Y309450D01*
X246186Y309429D01*
X246282Y309404D01*
X246378Y309375D01*
X246472Y309342D01*
X246565Y309306D01*
X246656Y309266D01*
X246746Y309222D01*
X246834Y309175D01*
X246920Y309125D01*
X247004Y309071D01*
X247086Y309014D01*
X247165Y308954D01*
X247243Y308890D01*
X247317Y308824D01*
X247389Y308755D01*
X247458Y308683D01*
X247524Y308609D01*
X247588Y308531D01*
X247648Y308452D01*
X247705Y308370D01*
X247759Y308286D01*
X247809Y308200D01*
X247856Y308112D01*
X247900Y308022D01*
X247940Y307931D01*
X247976Y307838D01*
X248009Y307744D01*
X248038Y307648D01*
X248063Y307552D01*
X248084Y307455D01*
X248102Y307356D01*
X248115Y307258D01*
X248125Y307158D01*
X248131Y307059D01*
X248133Y306959D01*
X248131Y306859D01*
X248125Y306760D01*
X248115Y306660D01*
X248102Y306562D01*
X248084Y306463D01*
X248063Y306366D01*
X248038Y306270D01*
X248009Y306174D01*
X247976Y306080D01*
X247940Y305987D01*
X247900Y305896D01*
X247856Y305806D01*
X247809Y305718D01*
X247759Y305632D01*
X247705Y305548D01*
X247648Y305466D01*
X247588Y305387D01*
X247524Y305309D01*
X247458Y305235D01*
X247389Y305163D01*
X247317Y305094D01*
X247243Y305028D01*
X247165Y304964D01*
X247086Y304904D01*
X247004Y304847D01*
X246920Y304793D01*
X246834Y304743D01*
X246746Y304696D01*
X246656Y304652D01*
X246565Y304612D01*
X246472Y304576D01*
X246378Y304543D01*
X246282Y304514D01*
X246186Y304489D01*
X246089Y304468D01*
X245990Y304450D01*
X245892Y304437D01*
X245792Y304427D01*
X245693Y304421D01*
X245593Y304419D01*
X243053Y304419D01*
D10*
X508000Y412750D02*
X514350Y419100D01*
X527050Y419100D01*
X533400Y412750D01*
X533400Y400050D02*
X527050Y393700D01*
X514350Y393700D01*
X508000Y400050D01*
X476250Y419100D02*
X463550Y419100D01*
X476250Y419100D02*
X482600Y412750D01*
X482600Y400050D02*
X476250Y393700D01*
X482600Y412750D02*
X488950Y419100D01*
X501650Y419100D01*
X508000Y412750D01*
X508000Y400050D02*
X501650Y393700D01*
X488950Y393700D01*
X482600Y400050D01*
X438150Y419100D02*
X431800Y412750D01*
X438150Y419100D02*
X450850Y419100D01*
X457200Y412750D01*
X457200Y400050D02*
X450850Y393700D01*
X438150Y393700D01*
X431800Y400050D01*
X457200Y412750D02*
X463550Y419100D01*
X457200Y400050D02*
X463550Y393700D01*
X476250Y393700D01*
X400050Y419100D02*
X387350Y419100D01*
X400050Y419100D02*
X406400Y412750D01*
X406400Y400050D02*
X400050Y393700D01*
X406400Y412750D02*
X412750Y419100D01*
X425450Y419100D01*
X431800Y412750D01*
X431800Y400050D02*
X425450Y393700D01*
X412750Y393700D01*
X406400Y400050D01*
X381000Y400050D02*
X381000Y412750D01*
X387350Y419100D01*
X381000Y400050D02*
X387350Y393700D01*
X400050Y393700D01*
X533400Y400050D02*
X533400Y412750D01*
D11*
X441664Y424617D02*
X441664Y428371D01*
X441663Y424617D02*
X441661Y424552D01*
X441655Y424488D01*
X441645Y424424D01*
X441632Y424360D01*
X441614Y424298D01*
X441593Y424237D01*
X441569Y424177D01*
X441540Y424119D01*
X441508Y424062D01*
X441473Y424008D01*
X441435Y423956D01*
X441393Y423906D01*
X441349Y423859D01*
X441302Y423815D01*
X441252Y423773D01*
X441200Y423735D01*
X441146Y423700D01*
X441089Y423668D01*
X441031Y423639D01*
X440971Y423615D01*
X440910Y423594D01*
X440848Y423576D01*
X440784Y423563D01*
X440720Y423553D01*
X440656Y423547D01*
X440591Y423545D01*
X440055Y423545D01*
X446086Y428371D02*
X446154Y428369D01*
X446221Y428363D01*
X446288Y428354D01*
X446355Y428341D01*
X446420Y428324D01*
X446485Y428303D01*
X446548Y428279D01*
X446610Y428251D01*
X446670Y428220D01*
X446728Y428186D01*
X446784Y428148D01*
X446839Y428108D01*
X446890Y428064D01*
X446939Y428017D01*
X446986Y427968D01*
X447030Y427917D01*
X447070Y427862D01*
X447108Y427806D01*
X447142Y427748D01*
X447173Y427688D01*
X447201Y427626D01*
X447225Y427563D01*
X447246Y427498D01*
X447263Y427433D01*
X447276Y427366D01*
X447285Y427299D01*
X447291Y427232D01*
X447293Y427164D01*
X446086Y428371D02*
X446008Y428369D01*
X445930Y428363D01*
X445853Y428353D01*
X445776Y428340D01*
X445700Y428322D01*
X445625Y428301D01*
X445551Y428276D01*
X445479Y428247D01*
X445408Y428215D01*
X445339Y428179D01*
X445271Y428140D01*
X445206Y428097D01*
X445143Y428051D01*
X445082Y428002D01*
X445024Y427950D01*
X444969Y427895D01*
X444916Y427838D01*
X444867Y427778D01*
X444820Y427715D01*
X444777Y427651D01*
X444737Y427584D01*
X444700Y427515D01*
X444667Y427444D01*
X444637Y427372D01*
X444611Y427299D01*
X446891Y426226D02*
X446940Y426275D01*
X446987Y426327D01*
X447030Y426382D01*
X447071Y426439D01*
X447109Y426498D01*
X447143Y426559D01*
X447174Y426622D01*
X447202Y426686D01*
X447226Y426752D01*
X447246Y426818D01*
X447263Y426886D01*
X447276Y426955D01*
X447285Y427024D01*
X447291Y427094D01*
X447293Y427164D01*
X446891Y426226D02*
X444612Y423545D01*
X447293Y423545D01*
D12*
X381000Y488950D02*
X381000Y501650D01*
X354330Y508000D02*
X407670Y508000D01*
X407670Y482600D01*
X354330Y482600D01*
X354330Y508000D01*
D10*
X444500Y514350D02*
X450850Y508000D01*
X463550Y508000D02*
X469900Y514350D01*
X476250Y508000D01*
X488950Y508000D02*
X495300Y514350D01*
X501650Y508000D01*
X514350Y508000D02*
X520700Y514350D01*
X444500Y514350D02*
X444500Y552450D01*
X450850Y558800D01*
X463550Y558800D01*
X469900Y552450D01*
X476250Y558800D01*
X488950Y558800D01*
X495300Y552450D01*
X501650Y558800D01*
X514350Y558800D01*
X520700Y552450D01*
X469900Y552450D02*
X469900Y514350D01*
X495300Y514350D02*
X495300Y552450D01*
X520700Y552450D02*
X520700Y514350D01*
X514350Y508000D02*
X501650Y508000D01*
X488950Y508000D02*
X476250Y508000D01*
X463550Y508000D02*
X450850Y508000D01*
X450850Y504650D02*
X463550Y504650D01*
D11*
X446744Y563047D02*
X446744Y566801D01*
X446743Y563047D02*
X446741Y562982D01*
X446735Y562918D01*
X446725Y562854D01*
X446712Y562790D01*
X446694Y562728D01*
X446673Y562667D01*
X446649Y562607D01*
X446620Y562549D01*
X446588Y562492D01*
X446553Y562438D01*
X446515Y562386D01*
X446473Y562336D01*
X446429Y562289D01*
X446382Y562245D01*
X446332Y562203D01*
X446280Y562165D01*
X446226Y562130D01*
X446169Y562098D01*
X446111Y562069D01*
X446051Y562045D01*
X445990Y562024D01*
X445928Y562006D01*
X445864Y561993D01*
X445800Y561983D01*
X445736Y561977D01*
X445671Y561975D01*
X445135Y561975D01*
X449692Y563047D02*
X450764Y566801D01*
X449692Y563047D02*
X452373Y563047D01*
X451568Y561975D02*
X451568Y564120D01*
M02*
